<svg xmlns="http://www.w3.org/2000/svg" viewBox="0 0 467 467"><defs><style>.cls-1{fill:none;stroke:#231f20;stroke-miterlimit:10;stroke-width:7px;stroke-dasharray:19.96 19.96 19.96 19.96 19.96 19.96;}.cls-2{fill:#231f20;fill-rule:evenodd;}</style></defs><g id="Capa_2" data-name="Capa 2"><g id="Layer_1" data-name="Layer 1"><rect class="cls-1" x="3.5" y="3.5" width="460" height="460" rx="230"/><path class="cls-2" d="M167.52,90.42H299.79c42.48,0,77.44,35,77.44,77.44V299.44c0,42.49-35,77.44-77.44,77.44H167.52c-42.49,0-77.44-34.95-77.44-77.44V167.86c0-42.49,35-77.44,77.44-77.44Zm143.23,50h0A16.68,16.68,0,0,1,327.2,156.9h0a16.68,16.68,0,0,1-16.45,16.45h0A16.24,16.24,0,0,1,294.3,156.9h0a16.24,16.24,0,0,1,16.45-16.45Zm-77.44,15.08H234c42.48,0,78.12,35.63,78.12,78.12h0c0,43.18-35.64,78.13-78.12,78.13h-.69c-42.49,0-77.44-34.95-77.44-78.13h0c0-42.49,34.95-78.12,77.44-78.12Zm0,26.72H234c28.09,0,51.39,23.31,51.39,51.4h0c0,28.79-23.3,52.09-51.39,52.09h-.69c-28.1,0-51.4-23.3-51.4-52.09h0c0-28.09,23.3-51.4,51.4-51.4Zm-65.1-67.16H299.1a53.52,53.52,0,0,1,53.45,53.46V298.76a53.51,53.51,0,0,1-53.45,53.45H168.21a53.52,53.52,0,0,1-53.46-53.45V168.55a53.53,53.53,0,0,1,53.46-53.46Z"/></g></g></svg>